C:\Users\Nick\Projects\MRSDeviceOpt\results\experiments\subject01\walk3\expdata\ground_reaction.mot
version=1
nRows=39
nColumns=19
inDegrees=no
endheader
time	ground_force_r_vx	ground_force_r_vy	ground_force_r_vz	ground_force_r_px	ground_force_r_py	ground_force_r_pz	ground_force_l_vx	ground_force_l_vy	ground_force_l_vz	ground_force_l_px	ground_force_l_py	ground_force_l_pz	ground_torque_r_x	ground_torque_r_y	ground_torque_r_z	ground_torque_l_x	ground_torque_l_y	ground_torque_l_z
1.880000	-0.006799	0.067654	-0.030467	0.000000	0.000000	0.000000	58.540668	692.592285	37.596134	0.740500	0.000000	-0.535340	0.000000	0.000000	0.000000	0.000000	-2.306130	0.000000
1.881000	-0.007730	0.078308	-0.035217	0.000000	0.000000	0.000000	59.549129	695.137451	37.789433	0.739114	0.000000	-0.535399	0.000000	0.000000	0.000000	0.000000	-2.304233	0.000000
1.882000	-0.008823	0.090336	-0.040638	0.000000	0.000000	0.000000	60.533501	697.702881	37.989498	0.737729	0.000000	-0.535458	0.000000	0.000000	0.000000	0.000000	-2.301122	0.000000
1.883000	-0.010086	0.103818	-0.046776	0.000000	0.000000	0.000000	61.495689	700.286072	38.197475	0.736347	0.000000	-0.535516	0.000000	0.000000	0.000000	0.000000	-2.296855	0.000000
1.884000	-0.011529	0.118826	-0.053678	0.000000	0.000000	0.000000	62.438019	702.884644	38.414135	0.734967	0.000000	-0.535573	0.000000	0.000000	0.000000	0.000000	-2.291495	0.000000
1.885000	-0.013161	0.135414	-0.061383	0.000000	0.000000	0.000000	63.363091	705.496094	38.639847	0.733590	0.000000	-0.535629	0.000000	0.000000	0.000000	0.000000	-2.285109	0.000000
1.886000	-0.014992	0.153616	-0.069930	0.000000	0.000000	0.000000	64.273628	708.117981	38.874550	0.732216	0.000000	-0.535685	0.000000	0.000000	0.000000	0.000000	-2.277772	0.000000
1.887000	-0.017031	0.173438	-0.079348	0.000000	0.000000	0.000000	65.172318	710.747681	39.117729	0.730844	0.000000	-0.535739	0.000000	0.000000	0.000000	0.000000	-2.269558	0.000000
1.888000	-0.019286	0.194855	-0.089657	0.000000	0.000000	0.000000	66.061668	713.382751	39.368450	0.729476	0.000000	-0.535792	0.000000	0.000000	0.000000	0.000000	-2.260549	0.000000
1.889000	-0.021764	0.217805	-0.100868	0.000000	0.000000	0.000000	66.943947	716.020813	39.625332	0.728111	0.000000	-0.535845	0.000000	0.000000	0.000000	0.000000	-2.250826	0.000000
1.890000	-0.024470	0.242189	-0.112980	0.000000	0.000000	0.000000	67.821045	718.659485	39.886616	0.726750	0.000000	-0.535895	0.000000	0.000000	0.000000	0.000000	-2.240475	0.000000
1.891000	-0.027411	0.267861	-0.125979	0.000000	0.000000	0.000000	68.694489	721.296326	40.150181	0.725393	0.000000	-0.535945	0.000000	0.000000	0.000000	0.000000	-2.229580	0.000000
1.892000	-0.030589	0.294633	-0.139839	0.000000	0.000000	0.000000	69.565392	723.928894	40.413597	0.724039	0.000000	-0.535993	0.000000	0.000000	0.000000	0.000000	-2.218228	0.000000
1.893000	-0.034007	0.322273	-0.154522	0.000000	0.000000	0.000000	70.434502	726.554749	40.674210	0.722689	0.000000	-0.536039	0.000000	0.000000	0.000000	0.000000	-2.206505	0.000000
1.894000	-0.037668	0.350509	-0.169977	0.000000	0.000000	0.000000	71.302277	729.171326	40.929184	0.721343	0.000000	-0.536084	0.000000	0.000000	0.000000	0.000000	-2.194497	0.000000
1.895000	-0.041574	0.379030	-0.186147	0.000000	0.000000	0.000000	72.168907	731.775879	41.175583	0.720002	0.000000	-0.536127	0.000000	0.000000	0.000000	0.000000	-2.182289	0.000000
1.896000	-0.045730	0.407501	-0.202966	0.000000	0.000000	0.000000	73.034454	734.365479	41.410465	0.718664	0.000000	-0.536168	0.000000	0.000000	0.000000	0.000000	-2.169962	0.000000
1.897000	-0.050142	0.435569	-0.220368	0.000000	0.000000	0.000000	73.898926	736.937073	41.630939	0.717330	0.000000	-0.536208	0.000000	0.000000	0.000000	0.000000	-2.157598	0.000000
1.898000	-0.054819	0.462876	-0.238287	0.000000	0.000000	0.000000	74.762383	739.487305	41.834255	0.716001	0.000000	-0.536246	0.000000	0.000000	0.000000	0.000000	-2.145273	0.000000
1.899000	-0.059775	0.489077	-0.256667	0.000000	0.000000	0.000000	75.625000	742.012451	42.017872	0.714676	0.000000	-0.536281	0.000000	0.000000	0.000000	0.000000	-2.133062	0.000000
1.900000	-0.065032	0.513856	-0.275461	0.000000	0.000000	0.000000	76.487160	744.508728	42.179520	0.713355	0.000000	-0.536315	0.000000	0.000000	0.000000	0.000000	-2.121035	0.000000
1.901000	-0.070617	0.536942	-0.294643	0.000000	0.000000	0.000000	77.349472	746.972046	42.317268	0.712038	0.000000	-0.536346	0.000000	0.000000	0.000000	0.000000	-2.109257	0.000000
1.902000	-0.076568	0.558130	-0.314204	0.000000	0.000000	0.000000	78.212822	749.398071	42.429562	0.710726	0.000000	-0.536376	0.000000	0.000000	0.000000	0.000000	-2.097790	0.000000
1.903000	-0.082931	0.577298	-0.334162	0.000000	0.000000	0.000000	79.078331	751.782471	42.515263	0.709418	0.000000	-0.536403	0.000000	0.000000	0.000000	0.000000	-2.086689	0.000000
1.904000	-0.089766	0.594417	-0.354561	0.000000	0.000000	0.000000	79.947350	754.120728	42.573666	0.708114	0.000000	-0.536428	0.000000	0.000000	0.000000	0.000000	-2.076006	0.000000
1.905000	-0.097141	0.609568	-0.375468	0.000000	0.000000	0.000000	80.821381	756.408325	42.604519	0.706814	0.000000	-0.536451	0.000000	0.000000	0.000000	0.000000	-2.065787	0.000000
1.906000	-0.105137	0.622949	-0.396974	0.000000	0.000000	0.000000	81.702034	758.640930	42.608002	0.705519	0.000000	-0.536471	0.000000	0.000000	0.000000	0.000000	-2.056071	0.000000
1.907000	-0.113847	0.634877	-0.419187	0.000000	0.000000	0.000000	82.590889	760.814453	42.584728	0.704228	0.000000	-0.536490	0.000000	0.000000	0.000000	0.000000	-2.046891	0.000000
1.908000	-0.123373	0.645792	-0.442223	0.000000	0.000000	0.000000	83.489449	762.924866	42.535713	0.702941	0.000000	-0.536505	0.000000	0.000000	0.000000	0.000000	-2.038275	0.000000
1.909000	-0.133826	0.656249	-0.466202	0.000000	0.000000	0.000000	84.399025	764.968567	42.462330	0.701659	0.000000	-0.536519	0.000000	0.000000	0.000000	0.000000	-2.030245	0.000000
1.910000	-0.145327	0.666919	-0.491230	0.000000	0.000000	0.000000	85.320663	766.942505	42.366268	0.700380	0.000000	-0.536530	0.000000	0.000000	0.000000	0.000000	-2.022817	0.000000
1.911000	-0.158000	0.678572	-0.517395	0.000000	0.000000	0.000000	86.255058	768.843933	42.249485	0.699106	0.000000	-0.536539	0.000000	0.000000	0.000000	0.000000	-2.015999	0.000000
1.912000	-0.171979	0.692076	-0.544751	0.000000	0.000000	0.000000	87.202522	770.670532	42.114159	0.697836	0.000000	-0.536545	0.000000	0.000000	0.000000	0.000000	-2.009793	0.000000
1.913000	-0.187399	0.708385	-0.573309	0.000000	0.000000	0.000000	88.162971	772.420593	41.962608	0.696571	0.000000	-0.536549	0.000000	0.000000	0.000000	0.000000	-2.004198	0.000000
1.914000	-0.204399	0.728534	-0.603029	0.000000	0.000000	0.000000	89.135910	774.092834	41.797264	0.695309	0.000000	-0.536551	0.000000	0.000000	0.000000	0.000000	-1.999203	0.000000
1.915000	-0.223121	0.753639	-0.633817	0.000000	0.000000	0.000000	90.120468	775.686401	41.620586	0.694051	0.000000	-0.536551	0.000000	0.000000	0.000000	0.000000	-1.994793	0.000000
1.916000	-0.243711	0.784899	-0.665518	0.000000	0.000000	0.000000	91.115486	777.200806	41.435013	0.692797	0.000000	-0.536549	0.000000	0.000000	0.000000	0.000000	-1.990947	0.000000
1.917000	-0.266314	0.823604	-0.697919	0.000000	0.000000	0.000000	92.119560	778.635925	41.242920	0.691547	0.000000	-0.536545	0.000000	0.000000	0.000000	0.000000	-1.987638	0.000000
1.918000	-0.291081	0.871156	-0.730759	0.000000	0.000000	0.000000	93.131195	779.991821	41.046558	0.690301	0.000000	-0.536538	0.000000	0.000000	0.000000	0.000000	-1.984835	0.000000
